<svg xmlns="http://www.w3.org/2000/svg" viewBox="0 0 860 400" font-family="sans-serif" font-size="12">
  <rect width="860" height="400" fill="white"/>
  <text x="430" y="24" text-anchor="middle" font-size="16" font-weight="bold">beej-c-guide (6 / 11)</text>
  <line x1="60" y1="320" x2="780" y2="320" stroke="#eee"/>
  <text x="52" y="324" text-anchor="end" font-size="10">0</text>
  <line x1="60" y1="264" x2="780" y2="264" stroke="#eee"/>
  <text x="52" y="268" text-anchor="end" font-size="10">4</text>
  <line x1="60" y1="208" x2="780" y2="208" stroke="#eee"/>
  <text x="52" y="212" text-anchor="end" font-size="10">8</text>
  <line x1="60" y1="152" x2="780" y2="152" stroke="#eee"/>
  <text x="52" y="156" text-anchor="end" font-size="10">12</text>
  <line x1="60" y1="96" x2="780" y2="96" stroke="#eee"/>
  <text x="52" y="100" text-anchor="end" font-size="10">16</text>
  <line x1="60" y1="40" x2="780" y2="40" stroke="#eee"/>
  <text x="52" y="44" text-anchor="end" font-size="10">20</text>
  <text x="60" y="340" text-anchor="middle" font-size="10" transform="rotate(-30,60,340)">03-22</text>
  <text x="150" y="340" text-anchor="middle" font-size="10" transform="rotate(-30,150,340)">03-23</text>
  <text x="330" y="340" text-anchor="middle" font-size="10" transform="rotate(-30,330,340)">03-28</text>
  <text x="420" y="340" text-anchor="middle" font-size="10" transform="rotate(-30,420,340)">03-30</text>
  <text x="600" y="340" text-anchor="middle" font-size="10" transform="rotate(-30,600,340)">04-03</text>
  <text x="780" y="340" text-anchor="middle" font-size="10" transform="rotate(-30,780,340)">04-05</text>
  <rect x="60" y="40" width="720" height="280" fill="none" stroke="#ccc"/>
  <line x1="60" y1="166.0" x2="780" y2="166.0" stroke="#4CAF50" stroke-width="1" stroke-dasharray="4,4" opacity="0.5"/>
  <text x="784" y="169" font-size="9" fill="#4CAF50" opacity="0.7">total</text>
  <polyline points="60.0,320.0 150.0,264.0 240.0,264.0 330.0,264.0 420.0,264.0 510.0,264.0 600.0,236.0 690.0,236.0 780.0,236.0" fill="none" stroke="#4CAF50" stroke-width="2.5"/>
  <circle cx="780.0" cy="236.0" r="3" fill="#4CAF50"/>
  <line x1="70" y1="360" x2="90" y2="360" stroke="#4CAF50" stroke-width="2"/>  <text x="94" y="364" font-size="10">beej-c-guide pass (6)</text>
</svg>
