<svg xmlns="http://www.w3.org/2000/svg" viewBox="0 0 860 400" font-family="sans-serif" font-size="12">
  <rect width="860" height="400" fill="white"/>
  <text x="430" y="24" text-anchor="middle" font-size="16" font-weight="bold">reg-rs Regression Tests (0)</text>
  <line x1="60" y1="NaN" x2="780" y2="NaN" stroke="#eee"/>
  <text x="52" y="NaN" text-anchor="end" font-size="10">0</text>
  <line x1="60" y1="NaN" x2="780" y2="NaN" stroke="#eee"/>
  <text x="52" y="NaN" text-anchor="end" font-size="10">0</text>
  <line x1="60" y1="NaN" x2="780" y2="NaN" stroke="#eee"/>
  <text x="52" y="NaN" text-anchor="end" font-size="10">0</text>
  <line x1="60" y1="NaN" x2="780" y2="NaN" stroke="#eee"/>
  <text x="52" y="NaN" text-anchor="end" font-size="10">0</text>
  <line x1="60" y1="NaN" x2="780" y2="NaN" stroke="#eee"/>
  <text x="52" y="NaN" text-anchor="end" font-size="10">0</text>
  <line x1="60" y1="NaN" x2="780" y2="NaN" stroke="#eee"/>
  <text x="52" y="NaN" text-anchor="end" font-size="10">0</text>
  <text x="60" y="340" text-anchor="middle" font-size="10" transform="rotate(-30,60,340)">03-22</text>
  <text x="150" y="340" text-anchor="middle" font-size="10" transform="rotate(-30,150,340)">03-23</text>
  <text x="330" y="340" text-anchor="middle" font-size="10" transform="rotate(-30,330,340)">03-28</text>
  <text x="420" y="340" text-anchor="middle" font-size="10" transform="rotate(-30,420,340)">03-30</text>
  <text x="600" y="340" text-anchor="middle" font-size="10" transform="rotate(-30,600,340)">04-03</text>
  <text x="780" y="340" text-anchor="middle" font-size="10" transform="rotate(-30,780,340)">04-05</text>
  <rect x="60" y="40" width="720" height="280" fill="none" stroke="#ccc"/>
  <line x1="70" y1="360" x2="90" y2="360" stroke="#607D8B" stroke-width="2"/>  <text x="94" y="364" font-size="10">reg-rs Regression Tests (0)</text>
</svg>
